# xmcd
#
# Track frame offsets: 
#        150
#        20646
#        32019
#        44753
#        64658
#        83343
#        98529
#        113756
#        130724
#        142765
#        157957
#        169275
#        178050
#        193235
#        219431
#
# Disc length: 3302 seconds
#
# Revision: 12
# Processed by: cddbd v1.5.2PL0 Copyright (c) Steve Scherf et al.
# Submitted via: ExactAudioCopyFreeDBPlugin 1.0
#
DISCID=c30ce40f
DTITLE=Mando Diao - Ode To Ochrasy
DYEAR=2006
DGENRE=Pop
TTITLE0=Welcome Home, Luc Robitaille
TTITLE1=Killer Kaczynski
TTITLE2=Long Before Rock'n'Roll
TTITLE3=The Wildfire (If It Was True)
TTITLE4=You Don't Understand Me
TTITLE5=Tony Zoulias (Lustful Life)
TTITLE6=Amsterdam
TTITLE7=TV and Me
TTITLE8=Josephine
TTITLE9=The New Boy
TTITLE10=Morning Paper Dirt
TTITLE11=Good Morning, Herr Horst
TTITLE12=Song For Aberdeen
TTITLE13=Ochrasy
TTITLE14=Data
EXTD=
EXTT0=
EXTT1=
EXTT2=
EXTT3=
EXTT4=
EXTT5=
EXTT6=
EXTT7=
EXTT8=
EXTT9=
EXTT10=
EXTT11=
EXTT12=
EXTT13=
EXTT14=
PLAYORDER=
